<svg width="155" height="55" viewBox="0 0 155 55" fill="none" xmlns="http://www.w3.org/2000/svg">
<path d="M6.12768 1.09997C6.22602 0.540153 6.42272 0.245117 6.68749 0.245117C6.95227 0.245117 7.14896 0.411548 7.57638 1.2664L16.5712 19.8461L25.532 1.03566C25.7968 0.509893 25.9594 0.245117 26.2582 0.245117C26.5571 0.245117 26.7537 0.574196 26.8521 1.2664L29.8516 21.6277C30.1504 23.7043 30.4795 24.6575 31.4668 24.9563C32.4237 25.2513 33.0819 25.2854 33.5093 25.2854C33.8044 25.2854 34.0351 25.3194 34.0351 25.5161C34.0351 25.7809 33.6379 25.8792 33.1765 25.8792C32.3519 25.8792 27.8053 25.7809 26.489 25.6825C25.7325 25.6182 25.532 25.5161 25.532 25.3194C25.532 25.153 25.6644 25.0546 25.8951 24.9563C26.0918 24.892 26.1902 24.4608 26.0615 23.5378L24.0833 9.04325H23.9509L16.7679 23.9993C16.0114 25.5464 15.845 25.8452 15.5499 25.8452C15.2549 25.8452 14.922 25.187 14.3963 24.1998C13.6057 22.683 11.0033 17.6447 10.6062 16.7218C10.3111 16.0296 8.33289 11.8801 7.17922 9.40637H7.04683L5.33335 22.5166C5.26905 23.1104 5.235 23.5378 5.235 24.0636C5.235 24.6915 5.66243 24.9865 6.22224 25.1189C6.8161 25.2513 7.27756 25.2854 7.60664 25.2854C7.87142 25.2854 8.10215 25.3497 8.10215 25.5161C8.10215 25.8111 7.80712 25.8792 7.31161 25.8792C5.92721 25.8792 4.44446 25.7809 3.85439 25.7809C3.22649 25.7809 1.6454 25.8792 0.593855 25.8792C0.264776 25.8792 0 25.8149 0 25.5161C0 25.3497 0.196691 25.2854 0.52577 25.2854C0.790546 25.2854 1.02128 25.2854 1.51301 25.187C2.43594 24.9903 2.69694 23.7043 2.86337 22.5847L6.12768 1.09997Z" fill="white"/>
<path d="M35.2834 15.2691C35.2834 10.4918 38.6423 4.2998 47.4405 4.2998C54.7558 4.2998 59.2987 8.35088 59.2987 14.7774C59.2987 21.2039 54.6197 26.2422 47.1416 26.2422C38.7066 26.2422 35.2834 20.2469 35.2834 15.2729V15.2691ZM54.9828 15.7949C54.9828 9.60289 51.2608 5.77877 46.5818 5.77877C43.3516 5.77877 39.5653 7.49225 39.5653 14.4105C39.5653 20.175 42.8598 24.7216 48.3293 24.7216C50.3719 24.7216 54.9828 23.7646 54.9828 15.7949Z" fill="white"/>
<path d="M64.7033 12.7954C64.7033 8.54384 64.7033 7.75329 64.6693 6.8644C64.605 5.90742 64.3402 5.61239 63.4172 5.34761C63.1865 5.28331 62.691 5.24927 62.2636 5.24927C61.9685 5.24927 61.7681 5.15092 61.7681 4.95423C61.7681 4.75754 61.9988 4.68945 62.4262 4.68945C63.943 4.68945 65.7851 4.75376 66.379 4.75376C67.3662 4.75376 70.0026 4.68945 70.8915 4.68945C72.7374 4.68945 74.8442 4.85588 76.3951 5.87716C77.2196 6.43698 78.4376 7.85542 78.4376 9.73154C78.4376 11.8081 77.2499 13.6502 74.4168 15.9235C76.9851 19.0857 79.0277 21.6238 80.7752 23.3675C82.3904 24.9826 83.4116 25.115 83.8731 25.2134C84.1681 25.2777 84.3346 25.2777 84.5653 25.2777C84.796 25.2777 84.9284 25.4441 84.9284 25.5727C84.9284 25.8034 84.7317 25.8678 84.3686 25.8678H81.5998C79.9847 25.8678 79.1941 25.7013 78.4376 25.3079C77.1856 24.6838 76.1 23.3637 74.4849 21.1888C73.3312 19.672 72.1133 17.7959 71.7501 17.3684C71.5837 17.202 71.4211 17.1718 71.2244 17.1718L68.622 17.1074C68.4896 17.1074 68.3913 17.1718 68.3913 17.3382V17.7316C68.3913 20.3339 68.4253 22.5089 68.5577 23.6928C68.656 24.5174 68.7884 25.0432 69.6773 25.1756C70.1047 25.2399 70.7326 25.2739 71.092 25.2739C71.3227 25.2739 71.4551 25.4403 71.4551 25.5689C71.4551 25.7656 71.2244 25.864 70.8612 25.864C69.1818 25.864 66.7761 25.7656 66.3487 25.7656C65.7889 25.7656 63.943 25.864 62.7893 25.864C62.4262 25.864 62.2295 25.7656 62.2295 25.5689C62.2295 25.4365 62.3279 25.2739 62.691 25.2739C63.1184 25.2739 63.4475 25.2399 63.7123 25.1756C64.3061 25.0432 64.4688 24.5174 64.5671 23.6928C64.6995 22.5051 64.6995 20.2999 64.6995 17.7316V12.7916L64.7033 12.7954ZM68.3913 14.9703C68.3913 15.2654 68.4556 15.3675 68.656 15.4658C69.2839 15.6625 70.1388 15.7306 70.865 15.7306C72.0187 15.7306 72.4121 15.6323 72.9076 15.2691C73.7965 14.645 74.7837 13.4233 74.7837 11.1197C74.7837 7.167 72.083 6.14572 70.3695 6.14572C69.6433 6.14572 68.9511 6.17976 68.656 6.24407C68.4593 6.30837 68.3913 6.4105 68.3913 6.63745V14.9741V14.9703Z" fill="white"/>
<path d="M104.828 23.9991C104.828 24.7556 104.828 24.7897 104.465 24.9864C102.521 25.9434 99.654 26.2384 97.3807 26.2384C90.2658 26.2384 83.9717 23.0081 83.9717 15.2691C83.9717 10.7868 86.3774 7.65868 89.044 6.11163C91.8128 4.4965 94.4152 4.2998 96.8511 4.2998C98.8597 4.2998 101.398 4.62888 101.992 4.76127C102.585 4.85962 103.607 5.02605 104.299 5.05631C104.628 5.09035 104.692 5.1887 104.692 5.38539C104.692 5.71447 104.496 6.47097 104.496 9.99627C104.496 10.4237 104.329 10.6242 104.102 10.6242C103.906 10.6242 103.837 10.4918 103.807 10.261C103.743 9.63693 103.576 8.74426 102.82 7.95371C101.965 7.06482 99.7902 5.81281 96.5259 5.81281C94.9448 5.81281 92.9362 5.84685 90.924 7.4582C89.3088 8.77452 88.2573 10.8511 88.2573 14.2781C88.2573 20.3074 92.1457 24.6876 98.3377 24.6876C99.0942 24.6876 99.688 24.6876 100.38 24.3925C100.808 24.1958 100.94 23.897 100.94 23.4053V20.837C100.94 19.4526 100.94 18.3972 100.906 17.5424C100.872 16.5854 100.577 16.2904 99.654 16.0256C99.4233 15.9613 98.9278 15.9273 98.5344 15.9273C98.2696 15.9273 98.0729 15.7949 98.0729 15.6322C98.0729 15.4015 98.3036 15.3674 98.697 15.3674C100.214 15.3674 102.287 15.4317 103.145 15.4317C104.068 15.4317 105.581 15.3674 106.538 15.3674C106.932 15.3674 107.132 15.4015 107.132 15.6322C107.132 15.7986 106.966 15.9273 106.769 15.9273C106.538 15.9273 106.307 15.9613 105.978 16.0256C105.188 16.158 104.893 16.5514 104.859 17.5424C104.825 18.3972 104.825 19.5206 104.825 20.9013V23.9991H104.828Z" fill="white"/>
<path d="M114.183 18.8247C114.016 18.8247 113.986 18.8587 113.918 19.0214L112.371 22.7774C112.076 23.4696 111.944 24.1618 111.944 24.4909C111.944 24.9864 112.208 25.2814 113.097 25.2814H113.525C113.888 25.2814 113.952 25.4138 113.952 25.5765C113.952 25.8072 113.786 25.8715 113.491 25.8715C112.534 25.8715 111.183 25.7731 110.26 25.7731C109.965 25.7731 108.415 25.8715 106.901 25.8715C106.538 25.8715 106.376 25.8072 106.376 25.5765C106.376 25.41 106.474 25.2814 106.705 25.2814C106.97 25.2814 107.299 25.2474 107.56 25.2474C108.876 25.0507 109.371 24.1921 109.965 22.7774L117.542 5.15087C117.871 4.36033 118.102 4.03125 118.397 4.03125C118.824 4.03125 118.956 4.29603 119.251 4.92014C119.944 6.46719 124.785 17.932 126.631 22.1835C127.751 24.7216 128.575 25.0809 129.101 25.1831C129.529 25.2474 129.858 25.2814 130.187 25.2814C130.451 25.2814 130.584 25.3798 130.584 25.5765C130.584 25.8072 130.417 25.8715 129.332 25.8715C128.311 25.8715 126.204 25.8715 123.764 25.8072C123.238 25.7731 122.909 25.7731 122.909 25.5765C122.909 25.41 122.973 25.3117 123.272 25.2814C123.469 25.2474 123.666 24.9864 123.537 24.6573L121.298 19.0251C121.233 18.8587 121.131 18.8284 121.003 18.8284H114.183V18.8247ZM120.375 17.2776C120.507 17.2776 120.541 17.2133 120.507 17.1112L117.772 9.99628C117.738 9.89793 117.708 9.7315 117.64 9.7315C117.542 9.7315 117.508 9.89793 117.474 9.99628L114.675 17.0809C114.61 17.2133 114.675 17.2776 114.773 17.2776H120.375Z" fill="white"/>
<path d="M135.566 22.0549C135.63 24.2298 135.993 24.888 136.553 25.0847C137.048 25.2511 137.608 25.2814 138.07 25.2814C138.399 25.2814 138.565 25.4138 138.565 25.5764C138.565 25.8071 138.3 25.8714 137.907 25.8714C136.031 25.8714 134.677 25.7731 134.151 25.7731C133.886 25.7731 132.506 25.8714 131.023 25.8714C130.63 25.8714 130.365 25.8374 130.365 25.5764C130.365 25.41 130.561 25.2814 130.826 25.2814C131.223 25.2814 131.749 25.2473 132.143 25.149C132.899 24.9523 132.997 24.192 133.031 21.7561L133.296 5.15082C133.296 4.59101 133.493 4.19385 133.792 4.19385C134.155 4.19385 134.548 4.62127 135.044 5.11678C135.407 5.4799 139.757 9.92814 143.97 14.0435C145.949 15.9877 149.803 19.9405 150.231 20.3376H150.363L150.068 7.88558C150.034 6.1721 149.773 5.67659 149.081 5.4156C148.653 5.24917 147.961 5.24917 147.564 5.24917C147.201 5.24917 147.102 5.11678 147.102 4.95413C147.102 4.7234 147.397 4.68936 147.829 4.68936C149.345 4.68936 150.892 4.75366 151.517 4.75366C151.846 4.75366 152.935 4.68936 154.35 4.68936C154.743 4.68936 155.008 4.7234 155.008 4.95413C155.008 5.12056 154.841 5.24917 154.512 5.24917C154.217 5.24917 153.987 5.24917 153.623 5.34751C152.833 5.57825 152.602 6.07376 152.568 7.65485L152.239 25.3116C152.239 25.9357 152.008 26.2005 151.778 26.2005C151.282 26.2005 150.889 25.9055 150.59 25.6067C148.778 23.9272 145.154 20.4662 142.125 17.5348C138.962 14.505 135.899 11.1121 135.339 10.6166H135.24L135.569 22.0473L135.566 22.0549Z" fill="white"/>
<path fill-rule="evenodd" clip-rule="evenodd" d="M149.231 28.0015H76.5088C74.9693 28.0015 73.7097 29.0946 73.7097 30.4261V52.3268C73.7097 53.662 74.9693 54.7514 76.5088 54.7514H149.231C150.771 54.7514 152.031 53.6583 152.031 52.3268V30.4261C152.031 29.0908 150.771 28.0015 149.231 28.0015Z" fill="#FC711B"/>
<mask id="mask0_1_251" style="mask-type:luminance" maskUnits="userSpaceOnUse" x="73" y="28" width="80" height="27">
<path d="M149.232 28.0015H76.5093C74.9698 28.0015 73.7102 29.0946 73.7102 30.4261V52.3268C73.7102 53.662 74.9698 54.7514 76.5093 54.7514H149.232C150.771 54.7514 152.031 53.6583 152.031 52.3268V30.4261C152.031 29.0908 150.771 28.0015 149.232 28.0015Z" fill="white"/>
</mask>
<g mask="url(#mask0_1_251)">
<path opacity="0.71" d="M158.846 41.3765H46.7817V72.0678H158.846V41.3765Z" fill="#FC3400"/>
</g>
<path d="M90.0505 43.5819C90.0505 45.7795 90.0504 47.5006 90.1639 48.4613C90.232 49.1271 90.3682 49.6301 91.0566 49.7209C91.3781 49.7663 91.8812 49.8117 92.2027 49.8117C92.5015 49.8117 92.5923 49.8798 92.5923 49.9933C92.5923 50.1521 92.4334 50.224 92.0892 50.224C90.6443 50.224 89.2032 50.1559 88.6055 50.1559C88.0079 50.1559 86.5668 50.224 85.6968 50.224C85.3753 50.224 85.2164 50.1786 85.2164 49.9933C85.2164 49.8798 85.3072 49.8117 85.5606 49.8117C85.9048 49.8117 86.1809 49.7663 86.3852 49.7209C86.8429 49.6301 86.9564 49.1271 87.0509 48.4613C87.1644 47.5006 87.1644 45.7795 87.1644 43.5819V39.5497C87.1644 36.066 87.1644 35.4268 87.119 34.693C87.0736 33.9138 86.8883 33.5469 86.1355 33.388C85.9502 33.3426 85.5644 33.3199 85.2429 33.3199C85.0121 33.3199 84.8533 33.2745 84.8533 33.1384C84.8533 32.9568 85.0348 32.9076 85.379 32.9076C85.9767 32.9076 86.6386 32.9303 87.2363 32.9303C87.8301 32.953 88.3597 32.9757 88.6774 32.9757C89.5474 32.9757 94.1999 32.9757 94.7256 32.953C95.1606 32.9303 95.4368 32.9303 95.6637 32.8622C95.7999 32.8169 95.9171 32.7261 96.0306 32.7261C96.1214 32.7261 96.1895 32.8169 96.1895 32.9341C96.1895 33.093 96.076 33.3691 96.0079 33.9667C95.9852 34.1975 95.9398 35.5478 95.8944 35.824C95.8717 36.0055 95.8264 36.1455 95.6637 36.1455C95.5011 36.1455 95.4557 36.032 95.433 35.7786C95.433 35.597 95.433 35.2301 95.2968 34.9086C95.1379 34.5871 94.6538 34.2429 93.7838 34.2202L90.2547 34.1521C90.1185 34.1521 90.0505 34.2202 90.0505 34.4736V40.2003C90.0505 40.3365 90.0731 40.4084 90.2093 40.4084L93.1408 40.3857C93.5304 40.3857 93.8519 40.3857 94.1696 40.363C94.6046 40.3403 94.9261 40.2495 95.1531 39.9507C95.2665 39.8145 95.3119 39.7199 95.4519 39.7199C95.5427 39.7199 95.5881 39.788 95.5881 39.9242C95.5881 40.0604 95.4746 40.6353 95.4027 41.3426C95.3573 41.8003 95.3119 42.8556 95.3119 43.0145C95.3119 43.2226 95.3119 43.4495 95.0812 43.4495C94.945 43.4495 94.8996 43.2906 94.8996 43.128C94.8996 42.9653 94.8542 42.693 94.7635 42.4169C94.65 42.0954 94.3058 41.6831 93.5947 41.5923C93.0235 41.5242 90.5951 41.5242 90.2055 41.5242C90.0921 41.5242 90.0467 41.5696 90.0467 41.7322V43.5895L90.0505 43.5819Z" fill="white"/>
<path d="M101.413 39.5497C101.413 36.066 101.413 35.4268 101.368 34.693C101.322 33.9138 101.137 33.5469 100.384 33.388C100.203 33.3426 99.8129 33.3199 99.4914 33.3199C99.238 33.3199 99.1018 33.2745 99.1018 33.1157C99.1018 32.9568 99.2607 32.9076 99.6049 32.9076C100.225 32.9076 100.887 32.9303 101.462 32.9303C102.056 32.953 102.586 32.9757 102.907 32.9757C103.641 32.9757 108.199 32.9757 108.634 32.953C109.069 32.9076 109.436 32.8622 109.617 32.8169C109.731 32.7942 109.871 32.7261 109.984 32.7261C110.098 32.7261 110.12 32.8169 110.12 32.9341C110.12 33.093 110.007 33.3691 109.939 34.4244C109.916 34.6552 109.871 35.6613 109.825 35.9374C109.803 36.0509 109.757 36.1909 109.595 36.1909C109.432 36.1909 109.39 36.0774 109.39 35.8693C109.39 35.7105 109.368 35.3209 109.254 35.0448C109.095 34.6325 108.864 34.3563 107.718 34.2202C107.329 34.1748 104.923 34.1294 104.465 34.1294C104.352 34.1294 104.307 34.1975 104.307 34.3601V40.1549C104.307 40.3138 104.329 40.4084 104.465 40.4084C104.968 40.4084 107.605 40.4084 108.131 40.363C108.679 40.3176 109.023 40.2495 109.231 40.0188C109.39 39.8372 109.485 39.7199 109.598 39.7199C109.689 39.7199 109.757 39.7653 109.757 39.9015C109.757 40.0377 109.666 40.4046 109.576 41.5734C109.553 42.0311 109.485 42.9464 109.485 43.1091C109.485 43.2906 109.485 43.5441 109.281 43.5441C109.122 43.5441 109.076 43.4533 109.076 43.3398C109.054 43.1091 109.054 42.814 108.986 42.5152C108.872 42.0575 108.551 41.7133 107.703 41.6225C107.268 41.5772 104.999 41.5545 104.45 41.5545C104.337 41.5545 104.314 41.6452 104.314 41.7852V43.5932C104.314 44.3724 104.291 46.4793 104.314 47.145C104.36 48.7261 104.726 49.0703 107.064 49.0703C107.662 49.0703 108.622 49.0703 109.216 48.7942C109.81 48.5181 110.086 48.0377 110.249 47.0996C110.294 46.8462 110.34 46.7554 110.502 46.7554C110.684 46.7554 110.684 46.937 110.684 47.1677C110.684 47.6935 110.502 49.2519 110.385 49.7096C110.226 50.3034 110.018 50.3034 109.148 50.3034C107.431 50.3034 106.171 50.258 105.184 50.2353C104.201 50.1899 103.49 50.1672 102.801 50.1672C102.548 50.1672 102.045 50.1672 101.496 50.1899C100.97 50.1899 100.373 50.2353 99.915 50.2353C99.6162 50.2353 99.4574 50.1673 99.4574 50.0046C99.4574 49.8911 99.5481 49.823 99.8243 49.823C100.168 49.823 100.445 49.7777 100.649 49.7323C101.107 49.6415 101.22 49.1384 101.315 48.4727C101.428 47.5119 101.428 45.7001 101.428 43.5932V39.5611L101.413 39.5497Z" fill="white"/>
<path d="M114.629 49.9517C114.262 49.7928 114.194 49.6756 114.194 49.1725C114.194 47.9129 114.285 46.5399 114.308 46.173C114.331 45.8288 114.399 45.5791 114.584 45.5791C114.788 45.5791 114.815 45.7834 114.815 45.9687C114.815 46.2675 114.905 46.7479 115.019 47.1375C115.522 48.8321 116.876 49.4524 118.295 49.4524C120.356 49.4524 121.366 48.0567 121.366 46.8425C121.366 45.7191 121.022 44.6675 119.123 43.1772L118.068 42.3526C115.548 40.3819 114.678 38.7782 114.678 36.9247C114.678 34.4056 116.785 32.5938 119.97 32.5938C121.461 32.5938 122.421 32.8245 123.015 32.9834C123.223 33.0287 123.337 33.0968 123.337 33.2595C123.337 33.5583 123.246 34.2202 123.246 36.0094C123.246 36.5124 123.178 36.6978 122.992 36.6978C122.834 36.6978 122.762 36.5616 122.762 36.2855C122.762 36.0812 122.648 35.3701 122.168 34.7725C121.824 34.3375 121.158 33.6491 119.671 33.6491C117.977 33.6491 116.944 34.6325 116.944 36.0094C116.944 37.0647 117.47 37.8666 119.373 39.3077L120.016 39.7881C122.788 41.8723 123.772 43.4534 123.772 45.6283C123.772 46.956 123.269 48.5371 121.619 49.6151C120.473 50.3489 119.191 50.5531 117.977 50.5531C116.649 50.5531 115.617 50.3943 114.633 49.9593L114.629 49.9517Z" fill="white"/>
<path d="M132.267 34.1898L128.855 34.2806C127.528 34.326 126.976 34.4395 126.635 34.9463C126.404 35.2906 126.291 35.5667 126.246 35.7482C126.2 35.9298 126.132 36.0244 125.992 36.0244C125.833 36.0244 125.788 35.9109 125.788 35.6575C125.788 35.2906 126.223 33.2064 126.268 33.0248C126.336 32.726 126.404 32.5898 126.544 32.5898C126.726 32.5898 126.957 32.8206 127.528 32.866C128.194 32.9341 129.064 32.9794 129.82 32.9794H138.89C139.624 32.9794 140.127 32.9114 140.472 32.866C140.816 32.7979 140.997 32.7525 141.092 32.7525C141.251 32.7525 141.273 32.8887 141.273 33.2329C141.273 33.7132 141.205 35.2943 141.205 35.892C141.183 36.1227 141.137 36.2589 141.001 36.2589C140.816 36.2589 140.77 36.1454 140.748 35.8012L140.725 35.5478C140.68 34.9539 140.059 34.3109 138.021 34.2655L135.134 34.1974V43.5894C135.134 45.6963 135.134 47.5081 135.248 48.4915C135.316 49.1346 135.452 49.6376 136.141 49.7284C136.462 49.7738 136.965 49.8192 137.309 49.8192C137.563 49.8192 137.676 49.8873 137.676 50.0008C137.676 50.1596 137.495 50.2315 137.241 50.2315C135.728 50.2315 134.287 50.1634 133.644 50.1634C133.118 50.1634 131.673 50.2315 130.758 50.2315C130.459 50.2315 130.3 50.1634 130.3 50.0008C130.3 49.8873 130.391 49.8192 130.667 49.8192C131.012 49.8192 131.284 49.7738 131.492 49.7284C131.95 49.6376 132.09 49.1346 132.158 48.4688C132.271 47.5081 132.271 45.6963 132.271 43.5894V34.1974L132.267 34.1898Z" fill="white"/>
<path d="M6.5859 34.1898L3.17406 34.2806C1.8464 34.326 1.29415 34.4395 0.949943 34.9463C0.71921 35.2906 0.605734 35.5667 0.560344 35.7482C0.514954 35.9298 0.446869 36.0244 0.306915 36.0244C0.14805 36.0244 0.098877 35.9109 0.098877 35.6575C0.098877 35.2906 0.533866 33.2064 0.579257 33.0248C0.647342 32.726 0.715427 32.5898 0.855381 32.5898C1.03694 32.5898 1.26768 32.8206 1.83884 32.866C2.50456 32.9341 3.37454 32.9794 4.13104 32.9794H13.2015C13.9353 32.9794 14.4384 32.9114 14.7826 32.866C15.1268 32.7979 15.3084 32.7525 15.4029 32.7525C15.5618 32.7525 15.5845 32.8887 15.5845 33.2329C15.5845 33.7132 15.5164 35.2943 15.5164 35.892C15.4937 36.1227 15.4483 36.2589 15.3122 36.2589C15.1306 36.2589 15.0814 36.1454 15.0587 35.8012L15.036 35.5478C14.9907 34.9539 14.3703 34.3109 12.3315 34.2655L9.44548 34.1974V43.5894C9.44548 45.6963 9.44548 47.5081 9.55895 48.4915C9.62704 49.1346 9.76321 49.6376 10.4516 49.7284C10.7731 49.7738 11.2762 49.8192 11.6204 49.8192C11.8739 49.8192 11.9873 49.8873 11.9873 50.0008C11.9873 50.1596 11.802 50.2315 11.5523 50.2315C10.0393 50.2315 8.5982 50.1634 7.95517 50.1634C7.4294 50.1634 5.98447 50.2315 5.06911 50.2315C4.77029 50.2315 4.61142 50.1634 4.61142 50.0008C4.61142 49.8873 4.7022 49.8192 4.97832 49.8192C5.32253 49.8192 5.59866 49.7738 5.80291 49.7284C6.2606 49.6376 6.40055 49.1346 6.46864 48.4688C6.58211 47.5081 6.58211 45.6963 6.58211 43.5894V34.1974L6.5859 34.1898Z" fill="white"/>
<path d="M19.8016 39.5497C19.8016 36.066 19.8016 35.4268 19.7562 34.693C19.7108 33.9138 19.5255 33.5469 18.7728 33.388C18.5912 33.3426 18.2016 33.3199 17.8801 33.3199C17.6266 33.3199 17.4905 33.2745 17.4905 33.1157C17.4905 32.9568 17.6493 32.9076 17.9936 32.9076C18.6101 32.9076 19.2758 32.9303 19.8508 32.9303C20.4484 32.953 20.9742 32.9757 21.2957 32.9757C22.0295 32.9757 26.5874 32.9757 27.0224 32.953C27.4574 32.9076 27.8243 32.8622 28.0059 32.8169C28.1194 32.7942 28.2593 32.7261 28.3728 32.7261C28.4863 32.7261 28.509 32.8169 28.509 32.9341C28.509 33.093 28.3955 33.3691 28.3274 34.4244C28.3047 34.6552 28.2593 35.6613 28.2139 35.9374C28.1912 36.0509 28.1458 36.1909 27.9832 36.1909C27.8205 36.1909 27.7789 36.0774 27.7789 35.8693C27.7789 35.7105 27.7562 35.3209 27.6428 35.0448C27.4839 34.6325 27.2532 34.3563 26.1071 34.2202C25.7175 34.1748 23.3118 34.1294 22.8541 34.1294C22.7406 34.1294 22.6952 34.1975 22.6952 34.3601V40.1549C22.6952 40.3138 22.7179 40.4084 22.8541 40.4084C23.3572 40.4084 25.9936 40.4084 26.5193 40.363C27.0678 40.3176 27.412 40.2495 27.6201 40.0188C27.7789 39.8372 27.8735 39.7199 27.987 39.7199C28.0777 39.7199 28.1458 39.7653 28.1458 39.9015C28.1458 40.0377 28.055 40.4046 27.9605 41.5734C27.9378 42.0311 27.8697 42.9464 27.8697 43.1091C27.8697 43.2906 27.8697 43.5441 27.6655 43.5441C27.5066 43.5441 27.4612 43.4533 27.4612 43.3398C27.4385 43.1091 27.4385 42.814 27.3704 42.5152C27.2569 42.0575 26.9354 41.7133 26.0881 41.6225C25.6532 41.5772 23.3836 41.5545 22.8352 41.5545C22.7217 41.5545 22.699 41.6452 22.699 41.7852V43.5932C22.699 44.3724 22.6763 46.4793 22.699 47.145C22.7444 48.7261 23.1113 49.0703 25.4489 49.0703C26.0465 49.0703 27.0073 49.0703 27.6011 48.7942C28.1988 48.5181 28.4711 48.0377 28.6338 47.0996C28.6792 46.8462 28.7246 46.7554 28.8872 46.7554C29.0725 46.7554 29.0725 46.937 29.0725 47.1677C29.0725 47.6935 28.8872 49.2519 28.7737 49.7096C28.6149 50.3034 28.4068 50.3034 27.5368 50.3034C25.8196 50.3034 24.56 50.258 23.5728 50.2353C22.5893 50.1899 21.8782 50.1672 21.1898 50.1672C20.9364 50.1672 20.4333 50.1672 19.8848 50.1899C19.359 50.1899 18.7614 50.2353 18.3037 50.2353C18.0049 50.2353 17.846 50.1673 17.846 50.0046C17.846 49.8911 17.9368 49.823 18.2129 49.823C18.5571 49.823 18.8295 49.7777 19.0375 49.7323C19.4952 49.6415 19.6087 49.1384 19.7033 48.4727C19.8167 47.5119 19.8167 45.7001 19.8167 43.5932V39.5611L19.8016 39.5497Z" fill="white"/>
<path d="M34.6214 48.0489C32.3746 46.0782 31.7808 43.5136 31.7808 41.2895C31.7808 39.7311 32.2611 37.0304 34.4626 35.0143C36.1117 33.5013 38.2867 32.5859 41.7023 32.5859C43.1245 32.5859 43.9718 32.6767 45.0234 32.8167C45.8933 32.9301 46.6271 33.1382 47.3156 33.2063C47.569 33.229 47.6598 33.3424 47.6598 33.4824C47.6598 33.664 47.5917 33.9401 47.5463 34.742C47.5009 35.4985 47.5236 36.7581 47.4782 37.2157C47.4555 37.5599 47.4101 37.7415 47.2021 37.7415C47.0205 37.7415 46.9714 37.5599 46.9714 37.2384C46.9487 36.5273 46.6498 35.7254 46.0787 35.1316C45.3222 34.3297 43.5368 33.7131 41.43 33.7131C39.4366 33.7131 38.1316 34.2162 37.1255 35.1316C35.4536 36.6673 35.0186 38.8422 35.0186 41.0663C35.0186 46.5169 39.1642 49.2214 42.2356 49.2214C44.2744 49.2214 45.5113 48.9907 46.4267 47.9392C46.8163 47.5042 47.1151 46.8385 47.2059 46.4262C47.274 46.0593 47.3193 45.9685 47.5047 45.9685C47.6636 45.9685 47.7089 46.1273 47.7089 46.3127C47.7089 46.5888 47.4328 48.5822 47.2059 49.3576C47.0924 49.7472 47.0016 49.8607 46.612 50.0233C45.6966 50.3902 43.9529 50.5491 42.4891 50.5491C39.3496 50.5491 36.7169 49.8607 34.6328 48.0526L34.6214 48.0489Z" fill="white"/>
<path d="M64.356 40.1923C64.4241 40.1923 64.4922 40.1469 64.4922 40.0334V39.5531C64.4922 36.0694 64.4922 35.4301 64.4468 34.6963C64.4014 33.9171 64.2161 33.5502 63.4633 33.3913C63.2818 33.346 62.8922 33.3233 62.5707 33.3233C62.3172 33.3233 62.1811 33.2779 62.1811 33.119C62.1811 32.9601 62.3399 32.911 62.6614 32.9148C63.8983 32.9148 65.3395 32.9828 65.9598 32.9828C66.5083 32.9828 67.9532 32.9148 68.8458 32.9148C69.1674 32.9148 69.3262 32.9601 69.3262 33.1228C69.3262 33.2854 69.1901 33.327 68.9139 33.327C68.7324 33.327 68.5243 33.3497 68.2482 33.3951C67.6317 33.5086 67.4463 33.8982 67.4009 34.7001C67.3555 35.4339 67.3555 36.0731 67.3555 39.5568V43.589C67.3555 45.6959 67.3555 47.5077 67.469 48.4911C67.5371 49.1342 67.6733 49.6373 68.3617 49.728C68.6832 49.7734 69.1863 49.8188 69.5305 49.8188C69.7839 49.8188 69.8974 49.8869 69.8974 50.0004C69.8974 50.1592 69.7158 50.2311 69.4397 50.2311C67.9494 50.2311 66.5083 50.163 65.8652 50.163C65.3395 50.163 63.8945 50.2311 63.0019 50.2311C62.6803 50.2311 62.5215 50.163 62.5215 50.0004C62.5215 49.8869 62.6123 49.8188 62.8884 49.8188C63.2326 49.8188 63.5087 49.7734 63.713 49.728C64.1707 49.6373 64.2841 49.1342 64.3787 48.4685C64.4922 47.5077 64.4922 45.6959 64.4922 43.589V41.5729C64.4922 41.4821 64.4241 41.4368 64.356 41.4368H55.607C55.539 41.4368 55.4709 41.4595 55.4709 41.5729V43.589C55.4709 45.6959 55.4709 47.5077 55.5843 48.4911C55.6524 49.1342 55.7886 49.6373 56.477 49.728C56.7985 49.7734 57.3016 49.8188 57.6458 49.8188C57.8992 49.8188 58.0127 49.8869 58.0127 50.0004C58.0127 50.1592 57.8312 50.2311 57.555 50.2311C56.0647 50.2311 54.6236 50.163 53.9806 50.163C53.4548 50.163 52.0099 50.2311 51.0945 50.2311C50.7957 50.2311 50.6368 50.163 50.6368 50.0004C50.6368 49.8869 50.7276 49.8188 51.0037 49.8188C51.3479 49.8188 51.6241 49.7734 51.8283 49.728C52.286 49.6373 52.3995 49.1342 52.494 48.4685C52.6075 47.5077 52.6075 45.6959 52.6075 43.589V39.5568C52.6075 36.0731 52.6075 35.4339 52.5621 34.7001C52.5167 33.9209 52.3314 33.554 51.5787 33.3951C51.3933 33.3497 51.0075 33.327 50.686 33.327C50.4326 33.327 50.2964 33.2817 50.2964 33.1228C50.2964 32.9639 50.4553 32.9147 50.7768 32.9185C52.0137 32.9185 53.4548 32.9866 54.0751 32.9866C54.6236 32.9866 56.0685 32.9185 56.9612 32.9185C57.2827 32.9185 57.4416 32.9639 57.4416 33.1266C57.4416 33.2892 57.3054 33.3308 57.0293 33.3308C56.8477 33.3308 56.6397 33.3535 56.3635 33.3989C55.747 33.5124 55.5617 33.902 55.5163 34.7039C55.4709 35.4377 55.4709 36.0769 55.4709 39.5606V40.041C55.4709 40.1545 55.539 40.1999 55.607 40.1999H64.356V40.1923Z" fill="white"/>
</svg>
