<?xml version="1.0" encoding="utf-8"?>
<!-- Generator: Adobe Illustrator 19.0.0, SVG Export Plug-In . SVG Version: 6.00 Build 0)  -->
<svg version="1.1" id="GoogleLogo_x5F_FullColor_x5F_rgb_21_"
	 xmlns="http://www.w3.org/2000/svg" xmlns:xlink="http://www.w3.org/1999/xlink" x="0px" y="0px" width="117.65px"
	 height="38.05px" viewBox="0 0 117.65 38.05" enable-background="new 0 0 117.65 38.05" xml:space="preserve">
<g id="_x31_18x38px">
	<path fill="#4285F4" d="M28.48,13.14c0.16,0.97,0.23,1.92,0.23,2.81c0,3.02-0.77,6.77-3.44,9.43c-2.59,2.7-5.9,4.14-10.29,4.14
		C6.84,29.52,0,22.89,0,14.76C0,6.62,6.84,0,14.97,0c4.5,0,7.7,1.76,10.12,4.07l-2.84,2.84c-1.73-1.62-4.07-2.88-7.27-2.88
		c-5.94,0-10.58,4.79-10.58,10.73c0,5.94,4.64,10.73,10.58,10.73c3.85,0,6.05-1.55,7.45-2.95c1.15-1.15,1.93-2.81,2.23-5.36H15
		v-4.03L28.48,13.14z"/>
	<path fill="#E94235" d="M49.5,20.01c0,5.47-4.27,9.5-9.5,9.5s-9.5-4.03-9.5-9.5c0-5.51,4.27-9.5,9.5-9.5S49.5,14.51,49.5,20.01z
		 M45.34,20.01c0-3.42-2.47-5.76-5.34-5.76s-5.34,2.34-5.34,5.76c0,3.38,2.47,5.76,5.34,5.76S45.34,23.4,45.34,20.01z"/>
	<path fill="#FABB05" d="M70.5,20.01c0,5.47-4.27,9.5-9.5,9.5s-9.5-4.03-9.5-9.5c0-5.51,4.27-9.5,9.5-9.5S70.5,14.51,70.5,20.01z
		 M66.34,20.01c0-3.42-2.47-5.76-5.34-5.76s-5.34,2.34-5.34,5.76c0,3.38,2.47,5.76,5.34,5.76S66.34,23.4,66.34,20.01z"/>
	<path fill="#4285F4" d="M90.63,11.09v17.06c0,7.02-4.14,9.9-9.04,9.9c-4.61,0-7.38-3.1-8.42-5.62l3.64-1.51
		c0.65,1.55,2.23,3.38,4.79,3.38c3.13,0,5.08-1.94,5.08-5.58v-1.37h-0.14c-0.94,1.15-2.74,2.16-5,2.16c-4.75,0-9.03-4.14-9.03-9.47
		c0-5.36,4.27-9.54,9.03-9.54c2.27,0,4.07,1.01,5,2.12h0.14v-1.55H90.63z M86.96,20.05c0-3.35-2.23-5.79-5.08-5.79
		c-2.88,0-5.21,2.45-5.21,5.79c0,3.31,2.33,5.72,5.21,5.72C84.73,25.77,86.96,23.36,86.96,20.05z"/>
	<path fill="#34A853" d="M98,1.01v27.93h-4.18V1.01H98z"/>
	<path fill="#E94235" d="M114.23,23.15l3.24,2.16c-1.04,1.55-3.56,4.21-7.92,4.21c-5.4,0-9.43-4.18-9.43-9.5
		c0-5.65,4.07-9.5,8.96-9.5c4.93,0,7.34,3.92,8.13,6.05l0.43,1.08l-12.71,5.26c0.97,1.91,2.48,2.88,4.61,2.88
		S113.15,24.73,114.23,23.15z M104.26,19.73l8.49-3.53c-0.47-1.19-1.87-2.02-3.53-2.02C107.1,14.18,104.15,16.05,104.26,19.73z"/>
</g>
</svg>
