<?xml version="1.0" encoding="utf-8"?>
<!-- Generator: Adobe Illustrator 19.0.0, SVG Export Plug-In . SVG Version: 6.00 Build 0)  -->
<svg version="1.1" id="GoogleLogo_x5F_FullColor_x5F_rgb_21_"
	 xmlns="http://www.w3.org/2000/svg" xmlns:xlink="http://www.w3.org/1999/xlink" x="0px" y="0px" width="283.55px"
	 height="93.01px" viewBox="0 0 283.55 93.01" enable-background="new 0 0 283.55 93.01" xml:space="preserve">
<g id="_x32_84x93px">
	<path fill="#4285F4" d="M36.61,72.16C16.72,72.16,0,55.97,0,36.08C0,16.19,16.72,0,36.61,0c11,0,18.83,4.31,24.73,9.94l-6.95,6.95
		c-4.22-3.96-9.94-7.04-17.78-7.04c-14.52,0-25.87,11.7-25.87,26.22S22.09,62.3,36.61,62.3c9.42,0,14.78-3.78,18.22-7.22
		c2.82-2.82,4.66-6.86,5.37-12.41H36.7v-9.86h33.08c0.35,1.76,0.53,3.87,0.53,6.16c0,7.39-2.02,16.54-8.54,23.06
		C55.44,68.64,47.34,72.16,36.61,72.16z"/>
	<path fill="#E94235" d="M119.95,48.93c0,13.38-10.44,23.23-23.25,23.23S73.45,62.3,73.45,48.93c0-13.46,10.44-23.23,23.25-23.23
		S119.95,35.46,119.95,48.93z M109.77,48.93c0-8.36-6.05-14.08-13.07-14.08c-7.02,0-13.07,5.72-13.07,14.08
		c0,8.27,6.05,14.08,13.07,14.08C103.72,63.01,109.77,57.2,109.77,48.93z"/>
	<path fill="#FABB05" d="M171.02,48.93c0,13.38-10.47,23.23-23.32,23.23s-23.32-9.86-23.32-23.23c0-13.46,10.47-23.23,23.32-23.23
		S171.02,35.46,171.02,48.93z M160.81,48.93c0-8.36-6.07-14.08-13.11-14.08s-13.11,5.72-13.11,14.08c0,8.27,6.07,14.08,13.11,14.08
		S160.81,57.2,160.81,48.93z"/>
	<path fill="#4285F4" d="M219.7,27.1v41.71c0,17.16-10.12,24.2-22.09,24.2c-11.26,0-18.04-7.57-20.59-13.73l8.89-3.7
		c1.58,3.78,5.46,8.27,11.7,8.27c7.66,0,12.41-4.75,12.41-13.64v-3.34h-0.35c-2.29,2.82-6.69,5.28-12.23,5.28
		c-11.62,0-22.24-10.12-22.24-23.14c0-13.11,10.62-23.32,22.24-23.32c5.54,0,9.94,2.46,12.23,5.19h0.35V27.1H219.7z M210.72,49.01
		c0-8.18-5.46-14.17-12.41-14.17c-7.04,0-12.94,5.98-12.94,14.17c0,8.1,5.9,13.99,12.94,13.99
		C205.27,63.01,210.72,57.11,210.72,49.01z"/>
	<path fill="#34A853" d="M236.11,2.75v68h-10.15v-68H236.11z"/>
	<path fill="#E94235" d="M275.2,56.58l7.92,5.28c-2.55,3.78-8.71,10.3-19.36,10.3c-13.2,0-23.06-10.21-23.06-23.23
		c0-13.82,9.94-23.23,21.91-23.23c12.06,0,17.95,9.59,19.89,14.78l1.06,2.64l-31.06,12.85c2.38,4.66,6.07,7.04,11.26,7.04
		C268.95,63.01,272.56,60.45,275.2,56.58z M250.82,48.22l20.77-8.62c-1.14-2.9-4.58-4.93-8.62-4.93
		C257.77,34.67,250.56,39.25,250.82,48.22z"/>
</g>
</svg>
