<?xml version="1.0" encoding="utf-8"?>
<!-- Generator: Adobe Illustrator 19.0.0, SVG Export Plug-In . SVG Version: 6.00 Build 0)  -->
<svg version="1.1" id="GoogleLogo_x5F_FullColor_x5F_rgb_21_"
	 xmlns="http://www.w3.org/2000/svg" xmlns:xlink="http://www.w3.org/1999/xlink" x="0px" y="0px" width="157.4px" height="50.74px"
	 viewBox="0 0 157.4 50.74" enable-background="new 0 0 157.4 50.74" xml:space="preserve">
<g id="_x31_58x51px">
	<path fill="#4285F4" d="M38.09,17.84c0.19,1.18,0.27,2.34,0.27,3.43c0,4.03-1.1,9.02-4.66,12.58c-3.46,3.6-7.87,5.52-13.73,5.52
		C9.12,39.36,0,30.53,0,19.68S9.12,0,19.97,0c6,0,10.27,2.35,13.49,5.42l-3.79,3.79c-2.3-2.16-5.42-3.84-9.7-3.84
		c-7.92,0-14.11,6.38-14.11,14.31c0,7.92,6.19,14.31,14.11,14.31c5.14,0,8.06-2.06,9.94-3.94c1.54-1.54,2.57-3.81,2.96-6.84h-12.9
		v-5.38L38.09,17.84z"/>
	<path fill="#E94235" d="M66.34,26.69c0,7.3-5.71,12.67-12.72,12.67s-12.72-5.38-12.72-12.67c0-7.34,5.71-12.67,12.72-12.67
		S66.34,19.35,66.34,26.69z M60.77,26.69c0-4.56-3.31-7.68-7.15-7.68c-3.84,0-7.15,3.12-7.15,7.68c0,4.51,3.31,7.68,7.15,7.68
		C57.46,34.37,60.77,31.2,60.77,26.69z"/>
	<path fill="#FABB05" d="M94.34,26.69c0,7.3-5.71,12.67-12.72,12.67s-12.72-5.38-12.72-12.67c0-7.34,5.71-12.67,12.72-12.67
		S94.34,19.35,94.34,26.69z M88.77,26.69c0-4.56-3.31-7.68-7.15-7.68c-3.84,0-7.15,3.12-7.15,7.68c0,4.51,3.31,7.68,7.15,7.68
		C85.46,34.37,88.77,31.2,88.77,26.69z"/>
	<path fill="#4285F4" d="M121.17,14.79v22.75c0,9.36-5.52,13.2-12.05,13.2c-6.14,0-9.84-4.13-11.23-7.49l4.85-2.02
		c0.86,2.06,2.98,4.51,6.38,4.51c4.18,0,6.77-2.59,6.77-7.44v-1.82h-0.19c-1.25,1.54-3.65,2.88-6.67,2.88
		c-6.34,0-12.15-5.52-12.15-12.62c0-7.15,5.81-12.72,12.15-12.72c3.02,0,5.42,1.34,6.67,2.83h0.19v-2.06H121.17z M116.27,26.74
		c0-4.46-2.98-7.73-6.77-7.73c-3.84,0-7.06,3.26-7.06,7.73c0,4.42,3.22,7.63,7.06,7.63C113.29,34.37,116.27,31.15,116.27,26.74z"/>
	<path fill="#34A853" d="M131.12,1.6v37h-5.5v-37H131.12z"/>
	<path fill="#E94235" d="M152.84,30.87l4.32,2.88c-1.39,2.06-4.75,5.62-10.56,5.62c-7.2,0-12.58-5.57-12.58-12.67
		c0-7.54,5.42-12.67,11.95-12.67c6.58,0,9.79,5.23,10.85,8.06l0.58,1.44l-16.95,7.01c1.3,2.54,3.31,3.84,6.14,3.84
		S151.4,32.98,152.84,30.87z M139.54,26.31l11.33-4.7c-0.62-1.58-2.5-2.69-4.7-2.69C143.33,18.91,139.4,21.41,139.54,26.31z"/>
</g>
</svg>
