<?xml version="1.0" encoding="utf-8"?>
<!-- Generator: Adobe Illustrator 19.0.0, SVG Export Plug-In . SVG Version: 6.00 Build 0)  -->
<svg version="1.1" id="GoogleLogo_x5F_FullColor_x5F_rgb_21_"
	 xmlns="http://www.w3.org/2000/svg" xmlns:xlink="http://www.w3.org/1999/xlink" x="0px" y="0px" width="320.75px"
	 height="105.71px" viewBox="0 0 320.75 105.71" enable-background="new 0 0 320.75 105.71" xml:space="preserve">
<g id="_x33_21x106px">
	<path fill="#4285F4" d="M79.75,44.3c0,8.4-2.15,18.8-9.55,26.2C63,78,53.8,82,41.6,82C19,82,0,63.6,0,41S19,0,41.6,0
		C54.1,0,63,4.9,69.7,11.3l-7.9,7.9c-4.8-4.5-11.3-8-20.2-8c-16.5,0-29.4,13.3-29.4,29.8s12.9,29.8,29.4,29.8
		c10.7,0,16.8-4.3,20.7-8.2c3.2-3.2,5.3-7.7,6.1-14H41.75V37.4h37.58C79.69,39.78,79.75,42.11,79.75,44.3z"/>
	<path fill="#E94235" d="M136.65,55.6c0,15.2-11.85,26.4-26.4,26.4c-14.55,0-26.4-11.2-26.4-26.4c0-15.3,11.85-26.4,26.4-26.4
		C124.79,29.2,136.65,40.3,136.65,55.6z M125.09,55.6c0-9.5-6.87-16-14.84-16c-7.97,0-14.84,6.5-14.84,16c0,9.4,6.87,16,14.84,16
		C118.22,71.6,125.09,65,125.09,55.6z"/>
	<path fill="#FABB05" d="M193.65,55.6c0,15.2-11.85,26.4-26.4,26.4c-14.55,0-26.4-11.2-26.4-26.4c0-15.3,11.85-26.4,26.4-26.4
		C181.79,29.2,193.65,40.3,193.65,55.6z M182.09,55.6c0-9.5-6.87-16-14.84-16c-7.97,0-14.84,6.5-14.84,16c0,9.4,6.87,16,14.84,16
		C175.22,71.6,182.09,65,182.09,55.6z"/>
	<path fill="#4285F4" d="M248.6,30.8v47.4c0,19.5-11.5,27.5-25.1,27.5c-12.8,0-20.5-8.6-23.4-15.6l10.1-4.2
		c1.8,4.3,6.2,9.4,13.3,9.4c8.7,0,14.1-5.4,14.1-15.5V76h-0.4c-2.6,3.2-7.6,6-13.9,6C210.1,82,198,70.5,198,55.7
		c0-14.9,12.1-26.5,25.3-26.5c6.3,0,11.3,2.8,13.9,5.9h0.4v-4.3H248.6z M238.4,55.7c0-9.3-6.2-16.1-14.1-16.1
		c-8,0-14.7,6.8-14.7,16.1c0,9.2,6.7,15.9,14.7,15.9C232.2,71.6,238.4,64.9,238.4,55.7z"/>
	<path fill="#34A853" d="M267.45,2.8v77.6h-11.6V2.8H267.45z"/>
	<path fill="#E94235" d="M311.25,64.3l9,6c-2.9,4.3-9.9,11.7-22,11.7c-15,0-26.2-11.6-26.2-26.4c0-15.7,11.3-26.4,24.9-26.4
		c13.7,0,20.4,10.9,22.6,16.8l1.2,3l-35.3,14.6c2.7,5.3,6.9,8,12.8,8C304.15,71.6,308.25,68.7,311.25,64.3z M283.55,54.8l23.6-9.8
		c-1.3-3.3-5.2-5.6-9.8-5.6C291.45,39.4,283.25,44.6,283.55,54.8z"/>
</g>
</svg>
