<?xml version="1.0" encoding="utf-8"?>
<!-- Generator: Adobe Illustrator 19.0.0, SVG Export Plug-In . SVG Version: 6.00 Build 0)  -->
<svg version="1.1" id="GoogleLogo_x5F_FullColor_x5F_rgb_21_"
	 xmlns="http://www.w3.org/2000/svg" xmlns:xlink="http://www.w3.org/1999/xlink" x="0px" y="0px" width="106.15px"
	 height="33.82px" viewBox="0 0 106.15 33.82" enable-background="new 0 0 106.15 33.82" xml:space="preserve">
<g id="_x31_07x34px">
	<path fill="#4285F4" d="M13.31,26.24C6.08,26.24,0,20.35,0,13.12S6.08,0,13.31,0c4,0,6.85,1.57,8.99,3.62l-2.53,2.53
		c-1.54-1.44-3.62-2.56-6.46-2.56c-5.28,0-9.41,4.26-9.41,9.54c0,5.28,4.13,9.54,9.41,9.54c3.42,0,5.38-1.38,6.62-2.62
		c1.02-1.02,1.7-2.5,1.95-4.51h-8.32v-3.58h11.81c0.13,0.64,0.19,1.41,0.19,2.24c0,2.69-0.74,6.02-3.1,8.38
		C20.16,24.96,17.21,26.24,13.31,26.24z"/>
	<path fill="#E94235" d="M44.52,17.8c0,4.86-3.8,8.45-8.45,8.45c-4.66,0-8.45-3.58-8.45-8.45c0-4.9,3.79-8.45,8.45-8.45
		C40.72,9.35,44.52,12.91,44.52,17.8z M40.82,17.8c0-3.04-2.2-5.12-4.75-5.12c-2.55,0-4.75,2.08-4.75,5.12
		c0,3.01,2.2,5.12,4.75,5.12C38.62,22.92,40.82,20.81,40.82,17.8z"/>
	<path fill="#FABB05" d="M63.52,17.79c0,4.86-3.79,8.45-8.45,8.45s-8.45-3.58-8.45-8.45c0-4.9,3.79-8.45,8.45-8.45
		S63.52,12.9,63.52,17.79z M59.82,17.79c0-3.04-2.2-5.12-4.75-5.12s-4.75,2.08-4.75,5.12c0,3.01,2.2,5.12,4.75,5.12
		S59.82,20.8,59.82,17.79z"/>
	<path fill="#4285F4" d="M81.57,9.85v15.17c0,6.24-3.68,8.8-8.03,8.8c-4.1,0-6.56-2.75-7.49-4.99l3.23-1.34
		c0.58,1.38,1.98,3.01,4.26,3.01c2.78,0,4.51-1.73,4.51-4.96v-1.22h-0.13c-0.83,1.02-2.43,1.92-4.45,1.92c-4.22,0-7.9-3.68-7.9-8.42
		c0-4.77,3.68-8.48,7.9-8.48c2.02,0,3.62,0.9,4.45,1.89h0.13V9.85H81.57z M78.3,17.82c0-2.98-1.98-5.15-4.51-5.15
		c-2.56,0-4.51,2.18-4.51,5.15c0,2.94,1.95,5.09,4.51,5.09C76.32,22.91,78.3,20.77,78.3,17.82z"/>
	<path fill="#34A853" d="M88.28,0.91v24.83h-3.71V0.91H88.28z"/>
	<path fill="#E94235" d="M103.11,20.57l2.88,1.92c-0.93,1.38-3.17,3.74-7.04,3.74c-4.8,0-8.38-3.71-8.38-8.45
		c0-5.02,3.62-8.45,7.97-8.45c4.38,0,6.53,3.49,7.23,5.38l0.38,0.96l-11.3,4.67c0.86,1.7,2.21,2.56,4.1,2.56
		C100.84,22.91,102.15,21.98,103.11,20.57z M94.25,17.53l7.55-3.14c-0.42-1.06-1.66-1.79-3.14-1.79
		C96.77,12.61,94.15,14.27,94.25,17.53z"/>
</g>
</svg>
