<?xml version="1.0" encoding="utf-8"?>
<!-- Generator: Adobe Illustrator 19.0.0, SVG Export Plug-In . SVG Version: 6.00 Build 0)  -->
<svg version="1.1" id="GoogleLogo_x5F_FullColor_x5F_rgb_21_"
	 xmlns="http://www.w3.org/2000/svg" xmlns:xlink="http://www.w3.org/1999/xlink" x="0px" y="0px" width="616.59px"
	 height="202.95px" viewBox="0 0 616.59 202.95" enable-background="new 0 0 616.59 202.95" xml:space="preserve">
<g id="_x36_17x203px">
	<path fill="#4285F4" d="M79.87,157.44C36.48,157.44,0,122.11,0,78.72S36.48,0,79.87,0c24,0,41.09,9.41,53.95,21.7l-15.17,15.17
		c-9.21-8.64-21.7-15.36-38.78-15.36c-31.68,0-56.45,25.54-56.45,57.22c0,31.68,24.77,57.22,56.45,57.22
		c20.54,0,32.26-8.26,39.74-15.74c6.14-6.14,10.18-14.98,11.71-27.07H80v-21.5h72.26c0.77,3.84,1.15,8.45,1.15,13.44
		c0,16.13-4.42,36.1-18.62,50.3C120.96,149.76,103.3,157.44,79.87,157.44z"/>
	<path fill="#E94235" d="M261.88,106.75c0,29.18-22.85,50.69-50.88,50.69s-50.88-21.5-50.88-50.69c0-29.38,22.85-50.69,50.88-50.69
		S261.88,77.38,261.88,106.75z M239.61,106.75c0-18.24-13.25-30.72-28.61-30.72s-28.61,12.48-28.61,30.72
		c0,18.05,13.25,30.72,28.61,30.72S239.61,124.8,239.61,106.75z"/>
	<path fill="#FABB05" d="M371.88,106.75c0,29.18-22.85,50.69-50.88,50.69s-50.88-21.5-50.88-50.69c0-29.38,22.85-50.69,50.88-50.69
		S371.88,77.38,371.88,106.75z M349.61,106.75c0-18.24-13.25-30.72-28.61-30.72s-28.61,12.48-28.61,30.72
		c0,18.05,13.25,30.72,28.61,30.72S349.61,124.8,349.61,106.75z"/>
	<path fill="#4285F4" d="M477,59.37v90.78c0,37.44-21.93,52.8-48.04,52.8c-24.58,0-39.36-16.51-44.93-29.95l19.39-8.06
		c3.46,8.26,11.9,18.05,25.54,18.05c16.7,0,27.07-10.37,27.07-29.76v-7.3h-0.77c-4.99,6.14-14.59,11.52-26.69,11.52
		c-25.34,0-48.58-22.08-48.58-50.5c0-28.61,23.23-50.88,48.58-50.88c12.1,0,21.7,5.38,26.69,11.33h0.77v-8.02H477z M457.57,106.94
		c0-17.86-11.9-30.91-27.07-30.91c-15.36,0-28.22,13.06-28.22,30.91c0,17.67,12.86,30.53,28.22,30.53
		C445.66,137.47,457.57,124.61,457.57,106.94z"/>
	<path fill="#34A853" d="M513.27,5.38v148.99H491V5.38H513.27z"/>
	<path fill="#E94235" d="M598.35,123.46l17.28,11.52c-5.57,8.26-19.01,22.46-42.24,22.46c-28.8,0-50.29-22.27-50.29-50.69
		c0-30.14,21.68-50.69,47.79-50.69c26.3,0,39.17,20.93,43.39,32.26l2.3,5.76l-67.78,28.03c5.18,10.18,13.25,15.36,24.58,15.36
		S592.59,131.91,598.35,123.46z M545.16,105.22l45.31-18.82c-2.5-6.34-9.98-10.75-18.82-10.75
		C560.33,75.65,544.59,85.63,545.16,105.22z"/>
</g>
</svg>
