<?xml version="1.0" encoding="utf-8"?>
<!-- Generator: Adobe Illustrator 19.0.0, SVG Export Plug-In . SVG Version: 6.00 Build 0)  -->
<svg version="1.1" id="GoogleLogo_x5F_FullColor_x5F_rgb_21_"
	 xmlns="http://www.w3.org/2000/svg" xmlns:xlink="http://www.w3.org/1999/xlink" x="0px" y="0px" width="721.98px"
	 height="236.77px" viewBox="0 0 721.98 236.77" enable-background="new 0 0 721.98 236.77" xml:space="preserve">
<g id="_x37_22x237px">
	<path fill="#4285F4" d="M93.18,183.68C42.56,183.68,0,142.46,0,91.84C0,41.22,42.56,0,93.18,0c28,0,47.94,10.98,62.94,25.31
		l-17.7,17.7c-10.75-10.08-25.31-17.92-45.25-17.92c-36.96,0-65.86,29.79-65.86,66.75s28.9,66.75,65.86,66.75
		c23.97,0,37.63-9.63,46.37-18.37c7.17-7.17,11.87-17.47,13.66-31.58H93.18V83.55h84.45c0.9,4.48,1.34,9.86,1.34,15.68
		c0,18.82-5.15,42.11-21.73,58.69C141.12,174.72,120.51,183.68,93.18,183.68z"/>
	<path fill="#E94235" d="M305.83,124.54c0,34.05-26.65,59.13-59.36,59.13c-32.7,0-59.36-25.09-59.36-59.13
		c0-34.27,26.66-59.14,59.36-59.14C279.18,65.41,305.83,90.27,305.83,124.54z M279.85,124.54c0-21.28-15.46-35.84-33.38-35.84
		s-33.38,14.56-33.38,35.84c0,21.05,15.46,35.84,33.38,35.84S279.85,145.6,279.85,124.54z"/>
	<path fill="#FABB05" d="M434.83,124.54c0,34.05-26.65,59.13-59.36,59.13c-32.7,0-59.36-25.09-59.36-59.13
		c0-34.27,26.66-59.14,59.36-59.14C408.18,65.41,434.83,90.27,434.83,124.54z M408.85,124.54c0-21.28-15.46-35.84-33.38-35.84
		s-33.38,14.56-33.38,35.84c0,21.05,15.46,35.84,33.38,35.84S408.85,145.6,408.85,124.54z"/>
	<path fill="#4285F4" d="M558.68,69.1v106.07c0,43.68-25.76,61.6-56.22,61.6c-28.67,0-45.92-19.26-52.42-34.94l22.62-9.41
		c4.03,9.63,13.89,21.05,29.79,21.05c19.49,0,31.58-12.1,31.58-34.72v-8.51h-0.89c-5.82,7.17-17.03,13.44-31.14,13.44
		c-29.57,0-56.67-25.76-56.67-58.91c0-33.38,27.1-59.36,56.67-59.36c14.11,0,25.31,6.27,31.14,13.22h0.89V69.1H558.68z
		 M535.83,124.77c0-20.83-13.89-36.06-31.58-36.06c-17.92,0-32.93,15.23-32.93,36.06c0,20.61,15.01,35.62,32.93,35.62
		C521.94,160.38,535.83,145.38,535.83,124.77z"/>
	<path fill="#34A853" d="M601.96,6.27V180.1h-25.98V6.27H601.96z"/>
	<path fill="#E94235" d="M700.7,144.03l20.16,13.44c-6.5,9.63-22.18,26.21-49.28,26.21c-33.6,0-58-25.98-58-59.13
		c0-35.17,24.62-59.14,55.09-59.14c30.69,0,45.7,24.42,50.62,37.63l2.69,6.72l-79.07,32.7c6.05,11.87,15.46,17.92,28.67,17.92
		C684.79,160.38,693.98,153.89,700.7,144.03z M638.65,122.75l52.86-21.95c-2.91-7.39-11.65-12.54-21.95-12.54
		C656.34,88.26,637.98,99.9,638.65,122.75z"/>
</g>
</svg>
