<?xml version="1.0" encoding="utf-8"?>
<!-- Generator: Adobe Illustrator 19.0.0, SVG Export Plug-In . SVG Version: 6.00 Build 0)  -->
<svg version="1.1" id="GoogleLogo_x5F_FullColor_x5F_rgb_21_"
	 xmlns="http://www.w3.org/2000/svg" xmlns:xlink="http://www.w3.org/1999/xlink" x="0px" y="0px" width="515.95px"
	 height="169.12px" viewBox="0 0 515.95 169.12" enable-background="new 0 0 515.95 169.12" xml:space="preserve">
<g id="_x35_16x170px">
	<path fill="#4285F4" d="M66.51,131.2C30.35,131.2,0,101.76,0,65.6C0,29.44,30.35,0,66.51,0c20,0,34.24,7.84,44.96,18.08
		L98.83,30.72c-7.68-7.2-18.08-12.8-32.32-12.8c-26.4,0-47.04,21.28-47.04,47.68c0,26.4,20.64,47.68,47.04,47.68
		c17.12,0,26.88-6.88,33.12-13.12c5.12-5.12,8.48-12.48,9.76-22.56H66.51V59.68h60.32c0.64,3.2,0.96,7.04,0.96,11.2
		c0,13.44-3.68,30.08-15.52,41.92C100.75,124.8,86.03,131.2,66.51,131.2z"/>
	<path fill="#E94235" d="M218.85,88.96c0,24.32-19.04,42.24-42.4,42.24c-23.36,0-42.4-17.92-42.4-42.24
		c0-24.48,19.04-42.24,42.4-42.24C199.81,46.72,218.85,64.48,218.85,88.96z M200.29,88.96c0-15.2-11.04-25.6-23.84-25.6
		c-12.8,0-23.84,10.4-23.84,25.6c0,15.04,11.04,25.6,23.84,25.6C189.25,114.56,200.29,104,200.29,88.96z"/>
	<path fill="#FABB05" d="M310.85,88.96c0,24.32-19.04,42.24-42.4,42.24c-23.36,0-42.4-17.92-42.4-42.24
		c0-24.48,19.04-42.24,42.4-42.24C291.81,46.72,310.85,64.48,310.85,88.96z M292.29,88.96c0-15.2-11.04-25.6-23.84-25.6
		c-12.8,0-23.84,10.4-23.84,25.6c0,15.04,11.04,25.6,23.84,25.6C281.25,114.56,292.29,104,292.29,88.96z"/>
	<path fill="#4285F4" d="M398.95,49.13v75.99c0,31.2-18.4,44-40.16,44c-20.48,0-32.8-13.76-37.44-24.96l16.16-6.72
		c2.88,6.88,9.92,15.04,21.28,15.04c13.92,0,22.56-8.64,22.56-24.8v-6.08h-0.64c-4.16,5.12-12.16,9.6-22.24,9.6
		c-21.12,0-40.48-18.4-40.48-42.08c0-23.84,19.36-42.4,40.48-42.4c10.08,0,18.08,4.48,22.24,9.44h0.64v-7.03H398.95z M382.63,89.12
		c0-14.88-9.92-25.76-22.56-25.76c-12.8,0-23.52,10.88-23.52,25.76c0,14.72,10.72,25.44,23.52,25.44
		C372.71,114.56,382.63,103.84,382.63,89.12z"/>
	<path fill="#34A853" d="M429.51,4.48v124.16h-18.56V4.48H429.51z"/>
	<path fill="#E94235" d="M500.75,102.88l14.4,9.6c-4.64,6.88-15.84,18.72-35.2,18.72c-24,0-41.92-18.56-41.92-42.24
		c0-25.12,18.08-42.24,39.84-42.24c21.92,0,32.64,17.44,36.16,26.88l1.92,4.8l-56.48,23.36c4.32,8.48,11.04,12.8,20.48,12.8
		S495.95,109.92,500.75,102.88z M456.43,87.68L494.19,72c-2.08-5.28-8.32-8.96-15.68-8.96C469.07,63.04,455.95,71.36,456.43,87.68z"
		/>
</g>
</svg>
