<?xml version="1.0" encoding="utf-8"?>
<!-- Generator: Adobe Illustrator 19.0.0, SVG Export Plug-In . SVG Version: 6.00 Build 0)  -->
<svg version="1.1" id="GoogleLogo_x5F_FullColor_x5F_rgb_21_"
	 xmlns="http://www.w3.org/2000/svg" xmlns:xlink="http://www.w3.org/1999/xlink" x="0px" y="0px" width="181.87px"
	 height="59.17px" viewBox="0 0 181.87 59.17" enable-background="new 0 0 181.87 59.17" xml:space="preserve">
<g id="_x31_82x60px">
	<path fill="#4285F4" d="M44.46,21c0.19,1.3,0.28,2.58,0.28,3.78c0,4.7-1.29,10.53-5.43,14.67c-4.03,4.2-9.18,6.44-16.02,6.44
		C10.64,45.9,0,35.59,0,22.94C0,10.28,10.64,0,23.3,0c7,0,11.98,2.74,15.74,6.33l-4.42,4.42c-2.69-2.52-6.33-4.48-11.31-4.48
		c-9.24,0-16.46,7.42-16.46,16.66c0,9.24,7.22,16.69,16.46,16.69c5.99,0,9.41-2.41,11.59-4.59c1.77-1.77,2.94-4.3,3.4-7.76l-14.79,0
		V21L44.46,21z"/>
	<path fill="#E94235" d="M77.34,31.11c0,8.51-6.66,14.78-14.84,14.78c-8.18,0-14.84-6.27-14.84-14.78c0-8.57,6.66-14.78,14.84-14.78
		C70.68,16.33,77.34,22.54,77.34,31.11z M70.84,31.11c0-5.32-3.86-8.96-8.34-8.96s-8.34,3.64-8.34,8.96c0,5.26,3.86,8.96,8.34,8.96
		S70.84,36.38,70.84,31.11z"/>
	<path fill="#FABB05" d="M109.25,31.11c0,8.51-6.62,14.78-14.75,14.78c-8.13,0-14.75-6.27-14.75-14.78
		c0-8.57,6.62-14.78,14.75-14.78C102.63,16.33,109.25,22.54,109.25,31.11z M102.79,31.11c0-5.32-3.84-8.96-8.29-8.96
		s-8.29,3.64-8.29,8.96c0,5.26,3.84,8.96,8.29,8.96S102.79,36.38,102.79,31.11z"/>
	<path fill="#4285F4" d="M140,17.22v26.54c0,10.92-6.44,15.4-14.06,15.4c-7.17,0-11.48-4.82-13.1-8.74l5.66-2.35
		c1.01,2.41,3.47,5.26,7.45,5.26c4.87,0,7.9-3.02,7.9-8.68v-2.13h-0.22c-1.46,1.79-4.26,3.36-7.78,3.36
		c-7.39,0-14.17-6.44-14.17-14.73c0-8.34,6.78-14.84,14.17-14.84c3.53,0,6.33,1.57,7.78,3.3h0.22v-2.41H140z M134.29,31.17
		c0-5.21-3.47-9.02-7.9-9.02c-4.48,0-8.23,3.81-8.23,9.02c0,5.15,3.75,8.9,8.23,8.9C130.82,40.07,134.29,36.32,134.29,31.17z"/>
	<path fill="#34A853" d="M151.18,2v43h-6.5V2H151.18z"/>
	<path fill="#E94235" d="M176.55,35.98l5.04,3.36c-1.62,2.41-5.54,6.55-12.32,6.55c-8.4,0-14.67-6.5-14.67-14.78
		c0-8.79,6.33-14.78,13.94-14.78c7.67,0,11.42,6.1,12.66,9.41l0.67,1.68l-19.77,8.18c1.51,2.97,3.86,4.48,7.17,4.48
		C172.58,40.07,174.87,38.45,176.55,35.98z M161.04,30.66l13.22-5.49c-0.73-1.85-2.91-3.14-5.49-3.14
		C165.46,22.04,160.87,24.95,161.04,30.66z"/>
</g>
</svg>
